# xmcd
#
# Track frame offsets:
#	150
#	16057
#	31950
#	45740
#	66270
#	78355
#	100152
#	115237
#	135167
#	150090
#	165990
#	181892
#
# Disc length: 2644 seconds
#
# Revision: 0
# Processed by: cddbd v1.4PL0 Copyright (c) Steve Scherf et al.
# Submitted via: EasyCDDAExtractor 4.6.9.1
#
DISCID=7e0a520c
DTITLE=David West - Pickin' On Bruce Springsteen - A Tribute 
DYEAR=1999
DGENRE=Bluegrass
TTITLE0=Prove It All Night
TTITLE1=I'm On Fire
TTITLE2=Cover Me
TTITLE3=Born To Run
TTITLE4=Hungry heart
TTITLE5=Tunnel Of Love
TTITLE6=Glory Days
TTITLE7=Blinded By The Light
TTITLE8=Born In The U.S.A.
TTITLE9=Brilliant Disguise
TTITLE10=Dancing In The Dark
TTITLE11=Streets Of Philadelphia
EXTD=US-Import
EXTT0=
EXTT1=
EXTT2=
EXTT3=
EXTT4=
EXTT5=
EXTT6=
EXTT7=
EXTT8=
EXTT9=
EXTT10=
EXTT11=
PLAYORDER=
